inDegrees=yes
name=ik_Xsens_quaternion
DataType=double
version=3
OpenSimVersion=4.4-2022-07-23-0e9fedc
endheader
time	pelvis_tilt	pelvis_list	pelvis_rotation	pelvis_tx	pelvis_ty	pelvis_tz	hip_flexion_r	hip_adduction_r	hip_rotation_r	knee_angle_r	knee_angle_r_beta	ankle_angle_r	subtalar_angle_r	mtp_angle_r	hip_flexion_l	hip_adduction_l	hip_rotation_l	knee_angle_l	knee_angle_l_beta	ankle_angle_l	subtalar_angle_l	mtp_angle_l	lumbar_extension	lumbar_bending	lumbar_rotation	arm_flex_r	arm_add_r	arm_rot_r	elbow_flex_r	pro_sup_r	wrist_flex_r	wrist_dev_r	arm_flex_l	arm_add_l	arm_rot_l	elbow_flex_l	pro_sup_l	wrist_flex_l	wrist_dev_l
0	5.326602497227346e-12	-4.349367506158719e-12	-4.690696968409997e-12	-5.232607308193839e-32	0.93	1.28851813265385e-31	1.061289291468264e-47	-1.429591568252327e-31	0	0	-1.976695584487669e-18	1.609615416509226e-27	-4.023924583609243e-31	-2.170728620909331e-29	1.583408882373842e-27	-9.824741680491604e-39	1.724719402833059e-27	0	-1.97669558294154e-18	3.260360853314831e-27	3.267575209932568e-31	-5.414369885967658e-28	5.326602497227346e-12	-4.349367506158721e-12	-4.690696968409997e-12	5.795651390761574e-32	1.559986212734096e-27	-6.283852959718203e-29	0	0	9.459552935008746e-28	-3.496435355719963e-28	-0.004026781899988102	0.006106653870240443	-57.86368790013839	0.002017700362153279	-0.01215073927912816	-9.719656157078534e-28	1.30804975182499e-27
0.01666666666666667	-9.773345247978942e-28	-1.06205612010186e-17	-1.613793483332008e-27	-3.398995355264752e-22	0.93	6.53493268739922e-24	4.052070358302401e-31	1.327888458486806e-18	0	0	-9.728884436016222e-18	1.052168954029618e-17	3.176024781381286e-23	-6.538987623334854e-23	-6.572752571383946e-19	-4.053895547658745e-30	-2.743913167316432e-17	0	-9.692597066031226e-18	-7.860509465975673e-19	-2.883099296179462e-23	-1.227314214582338e-20	-9.472949905862016e-28	7.340980091917019e-18	-8.971405135496915e-28	-4.203450811094807e-22	5.379224620327967e-17	9.473878594146773e-18	0	0	-4.042520786824085e-18	2.699527925919157e-18	0.3761787959353255	-0.0817230442711733	-58.01083979900528	-0.3745340533216211	0.1329548401196866	-4.908306252405092e-18	-7.887314758609145e-18
0.03333333333333333	0	0	0	0	0.93	0	0	0	0	0	0	0	0	0	0	0	0	0	0	0	0	0	0	0	0	0	0	0	0	0	0	0	0.9555596974482604	-0.1515457180956731	-57.97233259965359	-0.8219466522657576	0.1145949941705779	0	0
0.05	0	0	0	0	0.93	0	0	0	0	0	0	0	0	0	0	0	0	0	0	0	0	0	0	0	0	0	0	0	0	0	0	0	1.456521714723078	-0.2220433013718685	-57.89266078144088	-1.192247228800618	0.05308916380630036	0	0
0.06666666666666667	0	0	0	0	0.93	0	0	0	0	0	0	0	0	0	0	0	0	0	0	0	0	0	0	0	0	0	0	0	0	0	0	0	1.797310840663126	-0.2804407264100631	-57.83170687064174	-1.444689674647282	0.004359510546910124	0	0
0.08333333333333333	0	0	0	0	0.93	0	0	0	0	0	0	0	0	0	0	0	0	0	0	0	0	0	0	0	0	0	0	0	0	0	0	0	2.048522458473718	-0.3185449110660354	-57.71247277092527	-1.635824999723902	-0.04479644169738368	0	0
0.1	0	0	0	0	0.93	0	0	0	0	0	0	0	0	0	0	0	0	0	0	0	0	0	0	0	0	0	0	0	0	0	0	0	2.247678053748633	-0.3154334314184142	-57.55276164948393	-1.756207787938541	-0.07829287769155181	0	0
0.1166666666666667	0	0	0	0	0.93	0	0	0	0	0	0	0	0	0	0	0	0	0	0	0	0	0	0	0	0	0	0	0	0	0	0	0	2.416323567308068	-0.2972622442659539	-57.3451129852171	-1.84840804406454	-0.1146424515713506	0	0
0.1333333333333333	1.55714391448314e-12	-5.564594280778864e-13	-3.147924367323887e-12	-5.321204110873676e-21	0.93	5.862744749656325e-19	5.852939079517207e-28	-3.996373543008224e-17	0	4.611766396708537e-05	8.049050797219441e-07	-7.664109998758283e-20	-3.836127344188539e-20	-7.44792596357227e-20	-8.249452956668469e-21	-6.10741427455866e-29	-5.081635773848178e-21	4.611766396708537e-05	8.04905079721944e-07	-2.214047794340399e-20	-1.979991308252909e-19	1.759728921665655e-17	1.55714391448314e-12	-5.563539017977411e-13	-3.147924367323887e-12	-1.552458445581459e-21	8.439716843701439e-21	4.883899279602322e-21	4.611766399192383e-05	4.611766399192245e-05	1.444312641631833e-16	3.378717604026519e-18	2.549943005055563	-0.2773586882469966	-57.13462338298563	-1.918815828649015	-0.1294594706045161	-9.258221475470214e-17	2.467781069031354e-19
0.15	0	0	0	0	0.93	0	0	0	0	0	0	0	0	0	0	0	0	0	0	0	0	0	0	0	0	0	0	0	0	0	0	0	2.655728773011919	-0.2614004425268123	-56.92418333021509	-1.96576955551343	-0.1357617455485196	0	0
0.1666666666666667	8.468481976151311e-14	-1.890090390996423e-13	-1.348442392389399e-12	0	0.93	0	0	-3.053707147810963e-29	0	1.244245539822012e-15	2.171618136780679e-17	0	0	0	0	-3.053707147810963e-29	0	1.244245539822012e-15	2.171618136780679e-17	0	0	0	8.468481976151311e-14	-1.890090390996423e-13	-1.348442392389399e-12	0	-1.696503977801703e-29	0	1.244245526427223e-15	1.244245552615689e-15	0	4.362438768304207e-29	2.746054209443874	-0.2603667304560462	-56.68762533082203	-2.042031361869037	-0.1025442725146144	0	4.362438768304207e-29
0.1833333333333333	0	0	0	0	0.93	0	0	0	0	1.517946382627522e-40	0	0	0	0	0	0	0	0	0	0	0	0	0	0	0	0	0	0	0	0	0	0	2.815200868689729	-0.2586267527690443	-56.49470445353311	-2.114838988462596	-0.03207905272580534	0	0
0.2	-1.32487536310406e-33	0	0	0	0.93	0	1.287184548984762e-44	0	0	0	0	0	0	0	0	0	0	0	0	0	0	0	-1.32487536310406e-33	-2.586273221513765e-34	0	0	0	-5.608086090812616e-53	0	0	0	0	2.875394224705487	-0.2464411674780058	-56.30230530967049	-2.182981566752475	0.006001770956163983	0	0
0.2166666666666667	0	0	0	0	0.93	0	0	0	0	2.041463202288248e-38	1.887764207393312e-40	0	0	0	0	0	0	2.041463202288248e-38	1.887764207393312e-40	0	0	0	0	0	0	0	0	0	0	0	0	0	2.916708480708252	-0.2166827662712577	-56.12297730625018	-2.221609199540481	0.01718876156356757	0	0
0.2333333333333333	2.236048722767109e-34	0	0	0	0.93	0	0	0	0	0	0	0	0	0	0	0	0	3.261261988261621e-37	-5.877471754111438e-39	0	1.225105100158319e-48	-8.047253013384202e-37	2.236048722767109e-34	2.047466300365064e-34	1.724182147675843e-34	0	0	0	0	0	0	0	2.948916060284234	-0.1699000757195913	-55.89530533715525	-2.234269259427694	0.01577356694985383	0	0
0.25	0	0	0	0	0.93	0	0	0	0	0	0	0	0	0	0	0	0	0	-5.877471754111438e-39	0	0	0	0	0	0	0	0	0	0	0	0	0	2.964949909710824	-0.1084964780206575	-55.64587797215053	-2.218606847467699	0.07071175327477217	0	0
0.2666666666666667	0	0	0	0	0.93	0	0	0	0	3.29550841334069e-40	0	0	0	0	0	0	0	3.29550841334069e-40	0	0	0	0	0	0	0	0	0	0	0	3.29550841334069e-40	0	0	2.995817121514685	-0.05095071640396841	-55.3601984233436	-2.202771907969637	0.08476067183021574	0	0
0.2833333333333333	-8.351507277804865e-35	0	0	0	0.93	0	0	0	0	3.339157565344141e-39	0	0	0	0	0	0	0	3.339157565344141e-39	0	0	0	0	-8.351507277804865e-35	0	0	0	0	0	0	1.067242251711781e-38	0	0	3.015885589791105	0.0008416368616158935	-55.05517139387615	-2.192971899538085	0.0447287955071353	0	0
0.3	-1.197385247386128e-23	-1.94816680047338e-14	-9.545679396496145e-25	-8.205490201883126e-18	0.93	7.47464444247813e-21	-1.359304255901628e-29	-4.089182287625201e-19	0	9.925927121587281e-16	1.732401099821846e-17	1.941669051528127e-14	2.054943470434289e-22	5.565150959709639e-16	-3.348187222501324e-15	-2.895722358843751e-26	1.431252234199978e-14	9.92584505056132e-16	1.732374364412092e-17	-4.602832106980013e-14	1.318664238323091e-21	-1.279162272065444e-18	1.460810503856365e-24	-1.582134906685003e-15	1.774347977747774e-24	4.169577122460876e-22	-9.648076487859461e-14	3.731235214375449e-14	9.925965394816957e-16	9.925927646503781e-16	-2.424169011770315e-14	1.025218311876698e-14	3.037504707298771	0.04611724746739963	-54.71714500428929	-2.195470932182392	-0.09370292839207664	6.64528934326467e-14	-3.903117222526601e-14
0.3166666666666667	0	0	-2.418499494083273e-34	0	0.93	0	1.418233193302102e-34	0	0	0	8.842192426649254e-23	0	0	0	8.620910738379216e-35	0	0	0	3.282606353801125e-23	0	0	0	2.007212196099389e-44	0	-1.120766134881862e-33	0	0	0	0	0	0	0	3.066898584760534	0.08982917952795992	-54.43855220148684	-2.171112777952637	0.02407018412544712	0	0
0.3333333333333333	6.209611634828522e-20	1.620076951349765e-14	2.571976908965188e-20	4.18694723289481e-21	0.93	-1.534239901589928e-21	-1.546699800867823e-35	1.417299275501534e-19	0	4.664469391066531e-05	8.14103479174572e-07	-3.320957016421169e-05	-6.289165806233008e-07	-4.546159521526318e-09	-2.203678390754819e-20	-3.569817188722606e-36	-2.574267981416606e-20	4.471915836446614e-05	7.80496551298659e-07	8.549995084686257e-06	-1.017852289266937e-07	9.279052564654005e-13	6.142140315494606e-20	2.392125846681395e-13	3.631608691725171e-13	-8.134312604780333e-13	1.887988948078372e-06	4.752307439207336e-07	4.604828399697539e-05	4.611766384828427e-05	7.774163985732835e-15	-6.339381924072692e-14	3.084045338504745	0.1244956357533641	-54.14619867676763	-2.153048181819105	0.1250836470640574	5.215854035532344e-15	9.219052449321453e-15
0.35	0	0	0	0	0.93	0	0	0	0	0	0	0	0	0	0	0	0	0	1.335862341944102e-43	0	0	0	0	0	0	0	0	0	0	1.210221692517199e-38	0	0	3.105210803049099	0.15303269543114	-53.86013664444965	-2.145150767877926	0.1284110209496566	0	0
0.3666666666666666	0	0	0	0	0.93	0	1.077613842297402e-34	0	0	0	0	0	0	0	1.077613842297402e-34	0	0	0	1.335862341944102e-43	0	0	0	0	0	0	0	0	0	0	0	0	0	3.117627031014516	0.1812285717093	-53.63964599523762	-2.101422055850375	0.2641692390963065	0	0
0.3833333333333333	0	0	0	0	0.93	0	1.066838770713212e-38	0	0	0	0	0	0	0	1.066838770713212e-38	0	0	0	1.335862341944102e-43	0	0	0	0	0	0	0	0	0	0	0	0	0	3.164831694658261	0.1890820651103499	-53.36606416243214	-2.088478977221945	0.3727621761317475	0	0
0.4	0	0	0	0	0.93	0	0	0	0	0	0	0	0	0	0	0	0	0	0	0	0	0	0	0	0	0	0	0	0	0	0	0	3.214869433734569	0.187158802655758	-53.11809662974262	-2.094336780756914	0.3333703116509012	0	0
0.4166666666666667	0	0	0	0	0.93	0	0	0	0	0	0	0	0	0	0	0	0	0	0	0	0	0	0	0	0	0	0	0	0	4.233513753443934e-39	0	0	3.30386769442296	0.174355576876674	-52.85461829017498	-2.114219091803414	0.3583609839875521	0	0
0.4333333333333333	0	0	0	0	0.93	0	0	0	0	1.052357267868557e-38	1.836709923159824e-40	0	0	0	0	0	0	1.052357267868557e-38	1.836709923159824e-40	0	0	0	0	0	0	0	0	0	0	0	0	0	3.378887370167875	0.147687865648617	-52.77676752920407	-2.120323701902569	0.5842086388492327	0	0
0.45	0	0	0	0	0.93	0	0	0	0	0	-1.836709923159824e-40	0	0	0	0	0	0	0	-1.836709923159824e-40	0	0	0	0	0	0	0	0	0	0	0	0	0	3.486698780528181	0.1349140340372275	-52.42939551507717	-2.166420028736592	0.1415104978628556	0	0
0.4666666666666667	0	0	0	0	0.93	0	0	0	0	0	0	0	0	0	0	0	0	2.413357621310261e-37	0	0	0	0	0	0	0	0	0	0	0	0	0	0	3.564104419011982	0.1391420500242087	-52.24127429721337	-2.142711400010484	0.1543551331483697	0	0
0.4833333333333333	1.063957870792978e-27	-1.169524525483497e-27	4.956726686784542e-29	-1.210021480948985e-30	0.93	2.763820367206638e-20	4.401134150564785e-19	-1.917253978359194e-18	-3.249545062627129e-18	0	-6.283259802339048e-20	-2.463914050836278e-17	2.44174461717283e-18	2.190642644913329e-21	-1.607896145565334e-17	-4.048738749079476e-18	-1.084316182757286e-17	0	-1.735382296552327e-19	-2.995342176502226e-17	7.704389110001674e-19	1.97831813772893e-23	8.817116955061445e-18	-4.106958740260738e-18	2.253942989585043e-17	-1.245743177680387e-17	-5.279111515834146e-18	3.214023325431498e-18	0	0	9.661708386745362e-23	8.093619216993084e-20	3.64459066213412	0.1377180667188903	-52.15150145718257	-2.120093748668501	0.2239760550960089	5.531019815650992e-22	-4.808698594656357e-20
0.5	3.92033632050662e-47	-5.88050448075993e-47	2.450210200316637e-48	-4.276423536147513e-50	0.93	1.102025953895895e-39	2.104714535737113e-38	-8.418858142948453e-38	-1.262828721442268e-37	2.426570649309934e-20	2.395583473803581e-23	-1.010262977153814e-36	1.262828721442268e-37	8.221541155223099e-41	-6.735086514358763e-37	-1.683771628589691e-37	-5.051314885769072e-37	2.426570649309934e-20	5.320574295309697e-23	-1.347017302871753e-36	3.15707180360567e-38	9.634618541277069e-43	3.367543257179381e-37	-1.683771628589691e-37	1.010262977153814e-36	-5.051314885769072e-37	-2.525657442884536e-37	1.262828721442268e-37	2.426570649309934e-20	2.426570649309934e-20	3.853847416510828e-42	3.946339754507087e-39	3.736511570886198	0.137001610190413	-52.06302360308204	-2.117395066976617	0.143229111224292	2.055385288805775e-41	-1.973169877253544e-39
